<svg width="30.000000" height="32.505623" viewBox="0 0 30 32.5056" fill="none" xmlns="http://www.w3.org/2000/svg" xmlns:xlink="http://www.w3.org/1999/xlink">
	<desc>
			Created with Pixso.
	</desc>
	<defs/>
	<path id="↳ Icon Color" d="M12.83 0.04C12.16 -0.14 11.47 0.25 11.29 0.91L11.01 1.91C10.71 2.99 10.78 4.14 11.21 5.17L11.46 5.78C11.68 6.3 11.72 6.87 11.57 7.41L11.29 8.41C11.1 9.08 11.49 9.77 12.16 9.95C12.82 10.14 13.51 9.75 13.7 9.08L13.97 8.08C14.27 7 14.2 5.85 13.77 4.82L13.52 4.21C13.3 3.7 13.27 3.12 13.42 2.58L13.7 1.58C13.88 0.91 13.49 0.23 12.83 0.04ZM5.06 2.1C5.27 1.45 5.98 1.09 6.64 1.31C7.29 1.53 7.65 2.24 7.43 2.89L7.24 3.44C7.07 3.97 7.11 4.56 7.36 5.06C7.91 6.16 8 7.43 7.61 8.59L7.43 9.14C7.21 9.8 6.5 10.15 5.85 9.93C5.19 9.71 4.84 9.01 5.06 8.35L5.24 7.8C5.42 7.27 5.37 6.68 5.12 6.18C4.57 5.08 4.48 3.81 4.87 2.65L5.06 2.1ZM17.56 2.1C17.78 1.45 18.48 1.09 19.14 1.31C19.79 1.53 20.15 2.24 19.93 2.89L19.75 3.44C19.57 3.97 19.61 4.56 19.86 5.06C20.41 6.16 20.5 7.43 20.11 8.59L19.93 9.14C19.71 9.8 19 10.15 18.35 9.93C17.69 9.71 17.34 9.01 17.56 8.35L17.74 7.8C17.92 7.27 17.88 6.68 17.62 6.18C17.08 5.08 16.99 3.81 17.37 2.65L17.56 2.1ZM19.62 12.5C20.36 12.5 21 12.5 21.52 12.54C22.06 12.59 22.6 12.69 23.11 12.97C23.86 13.39 24.44 14.05 24.76 14.85C24.94 15.31 24.99 15.78 24.99 16.25L25.16 16.25C27.83 16.25 30 18.41 30 21.08C30 23.22 28.59 25.1 26.55 25.71L23.52 26.62C23.43 26.9 23.33 27.16 23.22 27.41C22.18 29.66 20.25 31.36 17.89 32.1C16.61 32.5 15.12 32.5 12.73 32.5L12.49 32.5L12.25 32.5C9.87 32.5 8.38 32.5 7.1 32.1C4.74 31.36 2.8 29.66 1.77 27.41C1.2 26.19 1.01 24.72 0.71 22.35L0.68 22.11L0.2 18.37C0.1 17.63 0.02 17 0 16.48C-0.02 15.94 0.01 15.39 0.23 14.85C0.55 14.05 1.13 13.39 1.88 12.97C2.39 12.69 2.93 12.59 3.47 12.54C3.99 12.5 4.62 12.5 5.36 12.5L19.62 12.5ZM3.1 15.16C3.16 15.12 3.3 15.07 3.68 15.03C4.08 15 4.61 15 5.41 15L19.57 15C20.38 15 20.91 15 21.3 15.03C21.69 15.07 21.82 15.12 21.89 15.16C22.14 15.3 22.33 15.52 22.44 15.78C22.46 15.85 22.5 15.99 22.49 16.38C22.47 16.78 22.4 17.3 22.3 18.1L21.82 21.79C21.48 24.48 21.33 25.54 20.95 26.36C20.21 27.97 18.83 29.19 17.14 29.71C16.27 29.99 15.2 30 12.49 30C9.78 30 8.71 29.99 7.84 29.71C6.16 29.19 4.78 27.97 4.04 26.36C3.66 25.54 3.51 24.48 3.16 21.79L2.69 18.1C2.58 17.3 2.52 16.78 2.5 16.38C2.48 15.99 2.52 15.85 2.55 15.78C2.65 15.52 2.85 15.3 3.1 15.16ZM24.27 22.35L24.3 22.11L24.74 18.75L25.16 18.75C26.45 18.75 27.49 19.79 27.49 21.08C27.49 22.11 26.82 23.02 25.83 23.32L24.08 23.84C24.14 23.39 24.2 22.89 24.27 22.35Z" fill="#B34F00" fill-opacity="1.000000" fill-rule="evenodd"/>
</svg>
