<svg width="265.920288" height="79.046875" viewBox="0 0 265.92 79.0469" fill="none" xmlns="http://www.w3.org/2000/svg" xmlns:xlink="http://www.w3.org/1999/xlink">
	<desc>
			Created with Pixso.
	</desc>
	<defs/>
	<path id="CoffeeStore" d="M73.05 26.15Q74.36 18.43 74.36 12.15Q74.36 1.75 70.71 0.25Q70.09 0 69.36 0Q66.57 0 64.53 1.23Q63.07 2.12 61.99 3.65Q59.4 7.29 59.4 13.6Q59.4 19.9 62.58 33.21Q63.57 37.52 65.68 45.76Q63.03 49.72 60.02 50.02Q59.77 50.04 59.52 50.04Q59.2 50.04 58.89 50Q57.49 49.83 56.19 48.9Q57.27 46.28 57.27 42.56Q57.27 38.84 55.63 36.51Q54.23 34.49 52.55 34.21Q52.27 34.17 51.99 34.17Q50.86 34.17 50.04 34.67Q49.41 35.07 48.96 35.78Q46.58 35.88 44.77 36.95Q43.35 37.78 42.29 39.2Q40.78 41.22 40.21 43.48Q39.87 44.83 39.87 46.28Q39.87 46.66 39.89 47.03Q35.99 51.06 31.26 52.78Q27.71 54.07 23.68 54.07Q21.01 54.07 18.64 53.21Q16.32 52.37 14.29 50.68Q12.46 49.15 11.1 47.27Q9.45 45 8.5 42.21Q6.78 37.12 6.78 30.59Q6.78 27.13 7.33 23.76Q7.83 20.77 8.76 17.85Q10.75 11.65 14.62 7.53Q17.54 4.4 20.99 3.64Q22.11 3.39 23.29 3.39Q24.69 3.39 25.63 4.04Q27.57 5.39 27.57 9.53Q27.57 10.03 27.53 10.53Q27.22 13.97 24.79 17.21Q22.28 20.57 19.42 20.9Q19.12 20.93 18.81 20.93Q17.77 20.93 17.38 20.43Q17.15 20.13 17.15 19.65L17.34 18.37Q17.34 18.15 17.23 18Q17.03 17.73 16.46 17.73Q15.6 17.73 13.87 19.07Q12.15 20.42 12.15 21.35Q12.15 22.04 12.33 22.67Q12.39 22.89 12.48 23.1Q12.52 23.21 12.58 23.31Q13.06 24.06 14.71 24.06Q18.43 24.06 22.78 21.09Q25.96 18.91 28.36 16.08Q29.25 15.03 30.04 13.89Q32.95 9.67 32.95 6.56Q32.95 3.45 31.42 2.07Q31.31 1.98 31.2 1.89Q29.7 0.7 27.26 0.7Q26.28 0.7 25.31 0.8Q20.84 1.28 16.6 3.93Q14.56 5.21 12.77 6.78Q10.03 9.16 7.85 12.2Q4.28 17.21 2.14 23.43Q0 29.64 0 35.59Q0 42.5 3.05 47.57Q4.04 49.21 5.34 50.65Q5.79 51.15 6.27 51.6Q11.6 56.57 21.56 56.57Q24.21 56.57 26.75 56.05Q30.06 55.38 33.18 53.82Q37.33 51.76 40.06 48.55Q40.42 50.45 41.4 51.95Q41.62 52.29 41.88 52.6Q42.5 53.37 43.28 53.91Q45.04 55.1 47.62 55.1Q47.91 55.1 48.21 55.08Q50.07 54.94 51.87 53.89Q52.22 53.68 52.56 53.44Q54.19 52.29 55.35 50.5Q56.16 50.88 57.01 51.07Q57.86 51.26 58.74 51.26Q59.7 51.26 60.6 51.02Q63.62 50.23 65.94 46.8Q68.12 55.24 68.93 58.43Q65.15 60.73 61.69 61.64Q59.32 60.35 57.11 60.35Q54.91 60.35 53.83 60.96Q52.8 61.54 52.74 62.2Q52.74 62.24 52.74 62.28Q52.74 62.45 52.79 62.6Q53.22 63.81 57.08 63.81Q59.13 63.81 62.4 62.78Q68.1 66.56 72.5 78.53Q72.67 78.99 72.92 79.04Q72.95 79.04 72.97 79.04Q73.09 79.04 73.19 79.01Q73.35 78.95 73.49 78.81Q73.72 78.59 75.19 77.59Q76.66 76.6 77 76.54Q77.14 76.52 77.22 76.44Q77.36 76.31 77.36 76.03Q77.36 71.64 75.73 63.57Q77.09 63.31 78.78 62.78Q84.48 66.56 88.89 78.53Q89.06 78.99 89.3 79.04Q89.33 79.04 89.36 79.04Q89.47 79.04 89.57 79.01Q89.74 78.95 89.87 78.81Q90.11 78.59 91.58 77.59Q93.04 76.6 93.39 76.54Q93.52 76.52 93.61 76.44Q93.75 76.31 93.75 76.03Q93.75 69.76 90.42 56Q94.38 52.58 97.32 48.72Q97.21 49.42 97.21 50.15Q97.21 51.23 97.62 52.13Q98.09 53.16 99.1 53.95Q100.99 55.42 104.54 55.42Q108.09 55.42 112.4 52.95Q114.89 51.54 116.75 49.54Q117.09 49.18 117.41 48.8Q117.31 49.46 117.31 50.15Q117.31 51.23 117.71 52.13Q118.18 53.16 119.2 53.95Q121.09 55.42 124.63 55.42Q128.1 55.42 132.29 53.07Q132.28 53.15 132.28 53.25Q132.28 53.5 132.41 53.63Q132.53 53.76 132.79 53.76Q133.12 53.76 133.56 53.31Q134.65 52.09 135.78 50.59Q136.34 50.08 136.85 49.54Q138.23 48.07 139.26 46.28L139.03 45.87Q143.05 39.52 147.57 30.01Q149.5 31.29 154.54 34.21Q159.61 37.12 163.07 39.75Q167.3 42.98 167.7 46.64Q167.75 47.03 167.75 47.42Q167.75 49.62 166.66 50.91Q165.34 52.46 162.43 52.67Q158.14 52.67 153.65 49.28Q149.18 45.89 147.45 42.89Q147.36 42.74 147.23 42.7Q147.19 42.68 147.14 42.68Q146.23 42.68 144.64 44Q143.04 45.31 143.04 45.98Q143.04 46.65 143.75 47.62Q148.69 54.21 154.76 55.5Q156.23 55.81 157.76 55.81Q157.95 55.81 158.14 55.8Q162.93 55.65 167.61 51.75Q171.87 48.19 172.41 44.14Q172.48 43.57 172.48 42.98Q172.48 42.45 172.41 41.93Q171.89 37.82 167.23 34.25Q164.67 32.32 162.14 30.85Q159.61 29.37 156.06 27.35Q152.51 25.34 150.4 23.93Q156.36 10.43 156.36 5.5Q156.36 2.89 155.29 1.51Q154.23 0.12 151.32 0.12Q148.42 0.12 145.25 2.81Q145.04 2.99 144.83 3.17Q141.95 5.77 140.18 9.6Q138.29 13.7 138.29 17.67Q138.29 17.81 138.3 17.95Q138.49 23.75 146.5 29.31Q143.23 36.29 139.32 42.76Q136.98 46.63 135.02 49.33Q134.59 49.6 134.13 49.85Q131.26 51.45 128.51 51.45Q126.17 51.45 124.56 50.36Q124.28 50.17 124.03 49.95Q123.71 49.67 123.45 49.35Q122.31 47.92 122.31 45.57Q122.31 43.38 123.33 41.89Q123.66 41.42 124.09 41.03Q124.85 40.32 125.59 39.87Q126.34 39.42 126.84 39.2Q127.35 38.98 127.35 38.92Q127.35 38.76 127.28 38.65Q127.11 38.4 126.59 38.4Q126.21 38.4 125.85 38.45Q125.46 38.51 125.09 38.62Q124.35 38.84 123.65 38.84Q120.66 38.84 119.69 37.44Q119.23 36.77 119.23 35.78Q119.23 34.88 119.6 34.17Q119.94 33.52 120.6 33.03Q121.29 32.51 122.06 32.25Q122.84 32 123.7 32Q125.15 32 125.39 32.53Q125.43 32.64 125.43 32.76L125.37 33.6Q125.37 34.05 125.59 34.31Q125.9 34.68 126.65 34.68Q127.48 34.68 128.49 33.6Q129.53 32.51 129.53 31.56Q129.53 31.26 129.41 31.02Q128.92 30.01 126.35 30.01Q123.2 30.01 118.96 32.7Q115.6 34.84 114.92 37.63Q114.74 38.35 114.74 39.1Q114.74 40.2 115.28 40.85Q116.09 41.85 118.13 41.85Q120.06 41.85 122.1 41.09Q122.11 41.09 122.12 41.09Q122.17 41.11 122.17 41.25Q122.17 41.4 121.74 41.76Q121.34 42.1 120.48 42.98Q119.62 43.84 118.46 45.82Q118.4 45.93 118.34 46.04Q117.61 47.06 116.72 47.91Q115.53 49.03 114.04 49.85Q111.16 51.45 108.41 51.45Q106.07 51.45 104.47 50.36Q104.19 50.17 103.93 49.95Q103.61 49.67 103.35 49.35Q102.21 47.92 102.21 45.57Q102.21 43.38 103.24 41.89Q103.56 41.42 103.99 41.03Q104.76 40.32 105.49 39.87Q106.24 39.42 106.74 39.2Q107.26 38.98 107.26 38.92Q107.26 38.76 107.18 38.65Q107.02 38.4 106.49 38.4Q106.12 38.4 105.75 38.45Q105.37 38.51 104.99 38.62Q104.26 38.84 103.55 38.84Q100.57 38.84 99.6 37.44Q99.13 36.77 99.13 35.78Q99.13 34.88 99.5 34.17Q99.84 33.52 100.51 33.03Q101.2 32.51 101.97 32.25Q102.74 32 103.6 32Q105.05 32 105.29 32.53Q105.34 32.64 105.34 32.76L105.27 33.6Q105.27 34.05 105.49 34.31Q105.8 34.68 106.55 34.68Q107.38 34.68 108.4 33.6Q109.43 32.51 109.43 31.56Q109.43 31.26 109.31 31.02Q108.82 30.01 106.26 30.01Q103.1 30.01 98.87 32.7Q95.51 34.84 94.82 37.63Q94.65 38.35 94.65 39.1Q94.65 40.2 95.18 40.85Q95.99 41.85 98.04 41.85Q99.96 41.85 102.01 41.09Q102.02 41.09 102.02 41.09Q102.07 41.11 102.07 41.25Q102.07 41.4 101.65 41.76Q101.24 42.1 100.38 42.98Q99.52 43.84 98.37 45.82Q98.24 46.04 98.13 46.25Q95.18 50.67 90.17 54.84L86.26 39.62Q88.12 33.85 89.44 26.15Q90.75 18.43 90.75 12.15Q90.75 1.75 87.09 0.25Q86.47 0 85.75 0Q82.96 0 80.92 1.23Q79.45 2.12 78.37 3.65Q75.78 7.29 75.78 13.6Q75.78 19.9 78.97 33.21Q79.96 37.53 82.06 45.77Q79.07 50.44 73.79 54.84L69.88 39.62Q71.74 33.85 73.05 26.15ZM82.33 46.8Q78.96 51.74 74.04 56Q74.61 58.37 75.08 60.52Q76.54 60.81 78.08 61.64Q81.53 60.73 85.31 58.43Q84.5 55.24 82.33 46.8ZM75.43 62.1Q75.34 61.71 75.26 61.3Q76.16 61.49 77.04 61.89Q76.24 62.03 75.43 62.1ZM69.64 61.35Q69.45 60.49 69.24 59.59Q66.24 61.5 63.1 62.59Q67.96 65.98 71.99 74.31L72.19 73.98Q71.59 70.14 70.09 63.38Q69.35 63.09 69.18 62.6Q69.12 62.45 69.12 62.28Q69.12 62.24 69.13 62.2Q69.16 61.76 69.64 61.35ZM69.72 7.04Q70.97 12.15 70.97 21.12Q70.97 30.07 69.3 37.7Q63.43 14.98 63.43 8.45Q63.43 2.76 65.33 2.03Q65.62 1.92 65.94 1.92Q66.24 1.92 66.51 1.99Q68.62 2.51 69.72 7.04ZM86.11 7.04Q87.36 12.15 87.36 21.12Q87.36 30.07 85.69 37.7Q79.81 14.98 79.81 8.45Q79.81 2.76 81.72 2.03Q82 1.92 82.33 1.92Q82.62 1.92 82.9 1.99Q85 2.51 86.11 7.04ZM141.95 12.74Q141.89 12.17 141.89 11.59Q141.89 10.75 142.5 8.87Q143.11 6.98 144.54 5.06Q145.73 3.48 147.16 3.2Q147.47 3.14 147.79 3.14Q148.11 3.14 148.41 3.19Q149.87 3.47 151.09 5.06Q152.12 6.4 152.44 7.89Q152.57 8.54 152.57 9.21Q152.57 14.34 149.18 23.04Q142.58 18.23 141.95 12.74ZM187.29 51.66Q179.97 49.9 179 21.7Q182.58 19.84 187.47 17.42Q192.38 14.98 194.85 13.73Q197.32 12.48 197.69 12.2Q198.08 11.9 198.08 11.71Q198.08 11.51 196.68 10.1Q196.66 10.09 196.65 10.08Q196.45 9.92 196.11 9.92Q195.77 9.92 182.27 17.15L178.94 18.95L178.94 16.9Q178.94 14.28 179.07 11.07Q179.07 10.73 178.9 10.59Q178.78 10.5 178.58 10.5Q178.11 10.5 174.27 12.03Q173.94 12.14 173.8 12.37Q173.69 12.55 173.69 12.79Q173.38 17.15 173.24 22.01L164.86 26.5Q164.27 26.83 164.07 27.33Q163.96 27.59 163.96 27.9Q163.96 28.37 164.19 28.59Q164.4 28.79 164.8 28.79Q165.32 28.79 173.24 24.64Q173.44 38.53 176.83 46.89Q179.7 53.95 184.06 55.03Q184.85 55.23 185.69 55.23Q190.38 55.23 195.47 48.64Q195.83 50.49 196.79 51.95Q197.02 52.29 197.27 52.6Q197.89 53.37 198.68 53.91Q200.43 55.1 203.01 55.1Q203.3 55.1 203.6 55.08Q205.46 54.94 207.26 53.89Q207.62 53.68 207.96 53.44Q209.58 52.29 210.74 50.5Q211.55 50.88 212.4 51.07Q213.25 51.26 214.13 51.26Q215.1 51.26 216 51.02Q219.05 50.22 221.39 46.72Q222.99 44.37 223.74 42.5Q223.86 42.21 224.08 42.07Q224.3 41.92 224.63 41.92L225.85 41.98Q226.94 41.98 228.99 41.46Q229.05 41.46 229.09 41.49Q229.18 41.55 229.18 41.73L228.41 43.01Q227.65 44.29 226.88 46.15Q226.12 48 226.12 49.09Q226.12 51.74 227.43 53.18Q229.02 54.92 232.51 54.92Q235.65 54.92 239.62 52.54Q242.07 51.07 243.86 49.02Q243.97 48.91 244.07 48.79Q243.96 49.45 243.96 50.15Q243.96 51.23 244.37 52.13Q244.84 53.16 245.85 53.95Q247.74 55.42 251.29 55.42Q254.84 55.42 259.15 52.95Q261.64 51.54 263.51 49.54Q264.88 48.07 265.92 46.28L265.46 45.5Q264.6 46.84 263.47 47.91Q262.28 49.03 260.79 49.85Q257.92 51.45 255.17 51.45Q252.83 51.45 251.22 50.36Q250.94 50.17 250.68 49.95Q250.37 49.67 250.11 49.35Q248.96 47.92 248.96 45.57Q248.96 43.38 249.99 41.89Q250.32 41.42 250.74 41.03Q251.51 40.32 252.24 39.87Q252.99 39.42 253.49 39.2Q254.01 38.98 254.01 38.92Q254.01 38.76 253.93 38.65Q253.77 38.4 253.24 38.4Q252.87 38.4 252.5 38.45Q252.12 38.51 251.74 38.62Q251.01 38.84 250.31 38.84Q247.32 38.84 246.35 37.44Q245.88 36.77 245.88 35.78Q245.88 34.88 246.25 34.17Q246.6 33.52 247.26 33.03Q247.95 32.51 248.72 32.25Q249.49 32 250.35 32Q251.8 32 252.04 32.53Q252.09 32.64 252.09 32.76L252.03 33.6Q252.03 34.05 252.25 34.31Q252.56 34.68 253.31 34.68Q254.13 34.68 255.15 33.6Q256.18 32.51 256.18 31.56Q256.18 31.26 256.06 31.02Q255.57 30.01 253.01 30.01Q249.85 30.01 245.62 32.7Q242.26 34.84 241.57 37.63Q241.4 38.35 241.4 39.1Q241.4 40.2 241.93 40.85Q242.75 41.85 244.79 41.85Q246.71 41.85 248.76 41.09Q248.77 41.09 248.78 41.09Q248.82 41.11 248.82 41.25Q248.82 41.4 248.4 41.76Q247.99 42.1 247.13 42.98Q246.28 43.84 245.12 45.82Q245.07 45.9 245.03 45.98Q243.3 48.39 241.02 49.73Q238.61 51.14 236.18 51.2Q236.08 51.2 235.99 51.2Q234.43 51.2 233.19 50.58Q232.42 50.19 231.77 49.57Q231.44 49.25 231.16 48.88Q230.07 47.36 230.07 45.06Q230.07 43.59 230.65 42.46Q231.23 41.34 231.71 41Q231.74 40.97 231.77 40.95Q232.19 40.58 232.19 39.71Q232.19 39.07 231.9 38.87Q231.76 38.78 231.55 38.78Q231.49 38.78 230.82 39.01Q230.15 39.23 229.05 39.23Q226.96 39.23 225.85 38.19Q224.57 36.99 224.57 34.43Q224.57 34.04 224.37 33.81Q224.12 33.53 223.54 33.53Q222.52 33.53 220.99 34.34Q219.51 35.11 219.46 35.96Q219.46 35.99 219.46 36.03Q219.46 38.93 220.91 40.26Q221.5 40.81 222.33 41.09Q222.54 41.17 222.66 41.33Q222.79 41.51 222.79 41.79Q222.07 44.42 220.8 46.14L220.81 46.14Q218.27 49.73 215.41 50.02Q215.16 50.04 214.91 50.04Q214.59 50.04 214.28 50Q212.89 49.83 211.59 48.9Q212.66 46.28 212.66 42.56Q212.66 38.84 211.02 36.51Q209.63 34.49 207.94 34.21Q207.66 34.17 207.38 34.17Q206.25 34.17 205.44 34.67Q204.8 35.07 204.35 35.78Q201.97 35.88 200.16 36.95Q198.75 37.78 197.68 39.2Q196.17 41.22 195.6 43.48Q195.26 44.83 195.26 46.28Q195.26 46.77 195.29 47.23Q191.27 51.78 188.28 51.78Q187.77 51.78 187.29 51.66ZM45.61 48.78Q44.6 47.05 44.6 44.73Q44.6 41.88 45.85 39.79Q46.8 38.21 48.44 37.06Q48.32 37.7 48.32 38.07Q48.32 40.53 49.04 42.75Q49.39 43.84 49.91 44.87Q51.52 48 54.01 49.73Q53.37 50.44 52.58 50.86Q51.46 51.45 50.04 51.45Q48.88 51.45 47.92 51Q46.89 50.52 46.1 49.51Q45.83 49.16 45.61 48.78ZM201 48.78Q199.99 47.05 199.99 44.73Q199.99 41.88 201.25 39.79Q202.19 38.21 203.84 37.06Q203.71 37.7 203.71 38.07Q203.71 40.53 204.43 42.75Q204.78 43.84 205.31 44.87Q206.91 48 209.4 49.73Q208.76 50.44 207.97 50.86Q206.86 51.45 205.43 51.45Q204.27 51.45 203.32 51Q202.28 50.52 201.49 49.51Q201.22 49.16 201 48.78ZM55.99 43.32Q55.99 46.14 55.16 48Q55.13 47.97 55.1 47.94Q53.61 46.48 52.73 44.42Q51.83 42.31 51.83 40.68Q51.83 39.04 52.35 38.15Q52.79 37.38 53.36 37.27Q53.46 37.25 53.57 37.25Q53.64 37.25 53.71 37.25Q54.58 37.37 55.26 38.89Q55.99 40.51 55.99 43.32ZM211.38 43.32Q211.38 46.14 210.56 48Q210.52 47.97 210.49 47.94Q209.01 46.48 208.12 44.42Q207.23 42.31 207.23 40.68Q207.23 39.04 207.74 38.15Q208.18 37.38 208.75 37.27Q208.85 37.25 208.96 37.25Q209.03 37.25 209.11 37.25Q209.97 37.37 210.65 38.89Q211.38 40.51 211.38 43.32ZM85.62 59.59Q87.81 69.12 88.58 73.98L88.37 74.31Q84.34 65.98 79.48 62.59Q82.62 61.5 85.62 59.59ZM58.32 61.21Q59.52 61.38 60.66 61.89Q59.39 62.11 58.11 62.17Q57.6 62.2 57.08 62.2Q55.44 62.2 55.3 61.74Q55.29 61.7 55.29 61.65Q55.29 61.61 55.3 61.57Q55.43 61.12 57.11 61.12Q57.73 61.12 58.32 61.21Z" fill="#7A2917" fill-opacity="1.000000" fill-rule="evenodd"/>
</svg>
