<svg width="273.025146" height="77.703125" viewBox="0 0 273.025 77.7031" fill="none" xmlns="http://www.w3.org/2000/svg" xmlns:xlink="http://www.w3.org/1999/xlink">
	<desc>
			Created with Pixso.
	</desc>
	<defs/>
	<path id="Your order" d="M223.9 50.67Q223.04 49.67 220.32 45.67Q217.6 41.67 215.1 36.79Q217.7 29.45 218.72 21.89Q219.38 17 219.38 12.03Q219.38 5.95 217.82 2.98Q216.6 0.65 214.85 0.14Q214.36 0 213.82 0Q213.64 0 213.47 0.01Q210.15 0.25 207.16 5.12Q206.36 6.43 205.77 7.82Q204.02 11.9 204.02 16.71Q204.02 23.17 207.04 31.54L206.98 31.54Q205.97 31.54 205.01 31.75Q201.33 32.55 198.3 36.39Q194.61 41.06 194.5 45.82Q194.49 45.98 194.49 46.14Q194.49 46.4 194.51 46.65Q193.17 48.14 191.55 49.09Q189.14 50.5 186.71 50.56Q186.61 50.56 186.52 50.56Q184.96 50.56 183.72 49.93Q182.95 49.55 182.3 48.93Q181.96 48.61 181.69 48.23Q180.6 46.72 180.6 44.42Q180.6 42.95 181.18 41.82Q181.75 40.7 182.24 40.35Q182.27 40.33 182.29 40.31Q182.72 39.94 182.72 39.07Q182.72 38.43 182.43 38.23Q182.29 38.14 182.08 38.14Q182.02 38.14 181.35 38.37Q180.68 38.59 179.58 38.59Q177.49 38.59 176.38 37.55Q175.1 36.35 175.1 33.79Q175.1 33.4 174.9 33.17Q174.65 32.89 174.07 32.89Q173.05 32.89 171.52 33.7Q170.04 34.47 169.99 35.32Q169.99 35.35 169.99 35.39Q169.99 38.29 171.44 39.62Q172.03 40.17 172.86 40.45Q173.07 40.53 173.18 40.69Q173.32 40.87 173.32 41.15Q172.6 43.78 171.33 45.5L171.34 45.5Q168.8 49.09 165.94 49.38Q165.69 49.4 165.44 49.4Q165.12 49.4 164.81 49.36Q163.42 49.19 162.12 48.26Q163.19 45.64 163.19 41.92Q163.19 38.2 161.55 35.87Q160.16 33.85 158.47 33.57Q158.19 33.53 157.91 33.53Q156.78 33.53 155.97 34.03Q155.33 34.43 154.88 35.14Q152.5 35.24 150.69 36.31Q149.28 37.14 148.21 38.56Q146.7 40.58 146.13 42.83Q145.79 44.19 145.79 45.64Q145.79 48.98 147.32 51.31Q147.55 51.65 147.8 51.96Q148.42 52.73 149.21 53.27Q150.96 54.46 153.54 54.46Q153.83 54.46 154.13 54.44Q155.99 54.3 157.79 53.25Q158.15 53.03 158.49 52.8Q160.11 51.65 161.27 49.85Q162.08 50.24 162.93 50.43Q163.78 50.62 164.66 50.62Q165.63 50.62 166.53 50.38Q169.58 49.58 171.92 46.08Q173.52 43.73 174.27 41.85Q174.39 41.57 174.61 41.43Q174.83 41.28 175.16 41.28L176.38 41.34Q177.47 41.34 179.52 40.82Q179.58 40.82 179.62 40.85Q179.71 40.91 179.71 41.09L178.94 42.37Q178.18 43.65 177.41 45.51Q176.65 47.35 176.65 48.45Q176.65 51.09 177.96 52.54Q179.55 54.28 183.04 54.28Q186.18 54.28 190.15 51.9Q192.6 50.43 194.39 48.38Q194.55 48.21 194.69 48.03Q194.97 49.22 195.62 50.15Q195.82 50.44 196.05 50.7Q196.13 50.78 196.22 50.87Q197.8 52.42 200.9 52.42Q201.62 52.42 202.33 52.3Q207.9 51.38 212.29 43.2Q214.98 48.12 217.46 51.35Q219.96 54.59 220.98 54.59Q222.01 54.59 223.38 53.43Q224.77 52.29 224.77 51.96Q224.77 51.65 223.9 50.67ZM60.03 74.25L58.56 74.56Q56.96 74.56 54.14 71.03Q51.32 67.51 48.31 61.92Q45.31 56.32 42.46 48.17Q39.62 40 38.2 31.87L38.34 31.04Q38.78 28.29 38.78 24.12Q38.78 21.12 38.04 17.54Q37.41 14.46 35.98 14.02Q35.74 13.95 35.48 13.95Q34.86 13.95 34.31 14.14Q33.25 14.52 32.45 15.62Q31.23 17.28 31.23 20.6Q31.23 26.86 32.24 32.95Q32.97 37.38 34.25 41.73Q33.92 43.14 31.14 45.92Q29.06 47.99 26.65 48.52Q25.83 48.7 24.96 48.7Q22.42 48.7 20.41 47.65Q18.59 46.7 17.21 44.87Q14.34 41.03 13.28 35.07Q12.21 29.12 11.67 22.95Q11.14 16.76 10.04 10.98Q8.96 5.18 6.84 2.75Q6.4 2.68 4.89 2.68Q3.39 2.68 1.4 3.39Q0.16 3.79 0.01 4.43Q0 4.52 0 4.6Q0 4.75 0.06 4.86Q0.14 4.99 0.32 5.06Q3.14 6.07 4.15 15.68Q4.6 19.9 5.01 24.84Q5.43 29.76 6.35 34.56Q7.29 39.35 8.82 43.32Q10.07 46.51 12.29 48.72Q12.83 49.25 13.43 49.73Q14.34 50.45 15.36 50.95Q17.78 52.15 20.79 52.15Q20.9 52.15 21 52.15Q23.21 52.11 25.4 51.26Q27.71 50.37 29.31 49.12Q30.92 47.87 32.18 46.56Q33.46 45.25 34.1 44.39Q34.75 43.51 34.75 43.39Q35.32 45.12 35.9 46.89Q36.48 48.64 38.14 53.25Q39.81 57.85 41.53 61.56Q43.26 65.28 45.34 69.21Q47.42 73.15 49.68 75.42Q51.96 77.7 54.04 77.7Q56.12 77.7 58.2 76.51Q60.29 75.32 60.29 74.5Q60.29 74.38 60.23 74.32Q60.17 74.25 60.03 74.25ZM213.76 34.25Q207.62 21.37 207.62 11.32Q207.62 4.23 210.08 3.23Q210.48 3.07 210.95 3.07Q211.47 3.07 211.94 3.23Q215.99 4.62 215.99 17.85Q215.99 25.28 213.76 34.25ZM235.07 32.12L235 32.96Q235 33.41 235.22 33.67Q235.53 34.04 236.28 34.04Q237.11 34.04 238.13 32.96Q239.16 31.87 239.16 30.92Q239.16 30.62 239.04 30.38Q238.55 29.37 235.99 29.37Q232.83 29.37 228.6 32.06Q225.24 34.2 224.55 36.99Q224.38 37.71 224.38 38.46Q224.38 39.55 224.91 40.21Q225.72 41.21 227.77 41.21Q229.69 41.21 231.74 40.45Q231.75 40.45 231.75 40.45Q231.8 40.47 231.8 40.6Q231.8 40.76 231.38 41.12Q230.97 41.46 230.11 42.34Q229.25 43.2 228.1 45.18Q227.6 46.03 227.32 46.94Q226.94 48.16 226.94 49.51Q226.94 50.59 227.35 51.49Q227.82 52.52 228.83 53.31Q230.72 54.78 234.27 54.78Q237.82 54.78 242.13 52.31Q244.62 50.9 246.48 48.9Q247.86 47.43 248.89 45.64L248.89 45.63Q250.27 43.55 250.94 41.85Q251.06 41.57 251.28 41.43Q251.5 41.28 251.83 41.28L253.05 41.34Q254.15 41.34 256.19 40.82Q256.25 40.82 256.3 40.85Q256.38 40.91 256.38 41.09L255.61 42.37Q254.85 43.65 254.08 45.51Q253.32 47.35 253.32 48.45Q253.32 51.09 254.64 52.54Q256.22 54.28 259.71 54.28Q262.85 54.28 266.82 51.9Q269.27 50.43 271.07 48.38Q272.17 47.12 273.02 45.64L272.57 44.85Q270.72 47.62 268.22 49.09Q265.82 50.5 263.38 50.56Q263.29 50.56 263.19 50.56Q261.63 50.56 260.39 49.93Q259.62 49.55 258.97 48.93Q258.64 48.61 258.37 48.23Q257.27 46.72 257.27 44.42Q257.27 42.95 257.85 41.82Q258.43 40.7 258.91 40.35Q258.94 40.33 258.97 40.31Q259.4 39.94 259.4 39.07Q259.4 38.43 259.1 38.23Q258.96 38.14 258.76 38.14Q258.69 38.14 258.02 38.37Q257.35 38.59 256.26 38.59Q254.16 38.59 253.05 37.55Q251.77 36.35 251.77 33.79Q251.77 33.4 251.57 33.17Q251.32 32.89 250.74 32.89Q249.72 32.89 248.19 33.7Q246.72 34.47 246.66 35.32Q246.66 35.35 246.66 35.39Q246.66 38.29 248.11 39.62Q248.7 40.17 249.54 40.45Q249.74 40.53 249.86 40.69Q249.99 40.87 249.99 41.15Q249.38 43.38 248.38 44.95Q247.54 46.24 246.45 47.26Q245.25 48.39 243.77 49.21Q240.89 50.81 238.14 50.81Q235.8 50.81 234.2 49.72Q233.92 49.53 233.66 49.31Q233.34 49.03 233.08 48.71Q231.94 47.28 231.94 44.93Q231.94 42.74 232.97 41.25Q233.29 40.78 233.72 40.39Q234.49 39.68 235.22 39.23Q235.97 38.78 236.47 38.56Q236.99 38.34 236.99 38.28Q236.99 38.12 236.91 38Q236.75 37.76 236.22 37.76Q235.85 37.76 235.48 37.81Q235.1 37.87 234.72 37.98Q233.99 38.2 233.28 38.2Q230.3 38.2 229.33 36.8Q228.86 36.13 228.86 35.14Q228.86 34.24 229.23 33.53Q229.57 32.88 230.24 32.39Q230.92 31.87 231.7 31.61Q232.47 31.35 233.33 31.35Q234.78 31.35 235.02 31.89Q235.07 32 235.07 32.12ZM205.8 48.06Q205.75 48.06 205.7 48.06Q204.14 48.06 203.08 47.33Q202.48 46.92 202.04 46.28Q200.84 44.48 200.84 41.45Q200.84 40.8 200.91 40.15Q201.2 37.79 202.52 35.56Q203.77 33.46 205.51 32.9Q206.15 32.7 206.85 32.7Q207.32 32.7 207.59 32.93Q207.93 33.23 207.93 33.92Q207.93 34.13 207.86 34.31Q207.73 34.63 207.38 34.85Q206.89 35.18 206.85 35.54Q206.85 35.56 206.85 35.59Q206.85 36.36 207.23 36.66Q207.47 36.85 207.87 36.85Q208.12 36.85 208.34 36.79Q208.71 36.69 209.02 36.42Q209.98 38.65 211.46 41.6Q208.74 47.95 205.8 48.06ZM110.46 41.28L111.68 41.34Q112.77 41.34 114.82 40.82Q114.88 40.82 114.92 40.85Q115 40.91 115 41.09L114.24 42.37Q113.47 43.65 112.71 45.51Q111.94 47.35 111.94 48.45Q111.94 51.09 113.26 52.54Q114.84 54.28 118.33 54.28Q121.47 54.28 125.44 51.9Q127.9 50.43 129.69 48.38Q130.79 47.12 131.64 45.64L131.19 44.85Q129.35 47.62 126.85 49.09Q124.44 50.5 122 50.56Q121.91 50.56 121.82 50.56Q120.26 50.56 119.01 49.93Q118.25 49.55 117.6 48.93Q117.26 48.61 116.99 48.23Q115.89 46.72 115.89 44.42Q115.89 42.95 116.47 41.82Q117.05 40.7 117.54 40.35Q117.56 40.33 117.59 40.31Q118.02 39.94 118.02 39.07Q118.02 38.43 117.72 38.23Q117.58 38.14 117.38 38.14Q117.32 38.14 116.64 38.37Q115.97 38.59 114.88 38.59Q112.79 38.59 111.67 37.55Q110.39 36.35 110.39 33.79Q110.39 33.4 110.2 33.17Q109.95 32.89 109.36 32.89Q108.35 32.89 106.82 33.7Q105.34 34.47 105.29 35.32Q105.29 35.35 105.29 35.39Q105.29 38.29 106.73 39.62Q107.33 40.17 108.16 40.45Q108.37 40.53 108.48 40.69Q108.61 40.87 108.61 41.15Q108.02 43.32 107.05 44.87Q102.2 51.59 97.99 51.59Q97.14 51.59 96.39 51.31Q94.72 50.69 93.56 48.68Q91.91 45.76 91.91 40.96Q91.91 38.46 92.34 35.96Q92.34 35.62 92.18 35.48Q92.06 35.39 91.86 35.39Q91.39 35.39 87.55 36.93Q87.24 37.03 87.09 37.25Q86.97 37.43 86.97 37.7Q86.72 39.68 86.72 42.62Q86.72 45.56 87.74 48.51Q86.64 49.55 85.44 49.7Q85.23 49.73 85.02 49.73Q84.49 49.73 83.98 49.63Q83.11 49.45 82.3 48.96Q81.68 48.61 81.15 48.15Q78.92 46.23 78.2 42.56Q79.09 39.87 79.09 37.57Q79.09 35.39 78.59 35.27Q78.56 35.26 78.53 35.26Q76.41 35.26 74.88 36.15Q72.89 37.43 72.89 41.98Q72.89 44.17 73.44 46.08Q71.09 49.12 68.47 49.38Q68.22 49.4 67.97 49.4Q67.65 49.4 67.34 49.36Q65.94 49.19 64.64 48.26Q65.72 45.64 65.72 41.92Q65.72 38.2 64.08 35.87Q62.68 33.85 61 33.57Q60.72 33.53 60.44 33.53Q59.31 33.53 58.49 34.03Q57.85 34.43 57.41 35.14Q55.03 35.24 53.21 36.31Q51.8 37.14 50.74 38.56Q49.23 40.58 48.66 42.83Q48.32 44.19 48.32 45.64Q48.32 48.98 49.85 51.31Q50.07 51.65 50.33 51.96Q50.95 52.73 51.73 53.27Q53.49 54.46 56.07 54.46Q56.36 54.46 56.66 54.44Q58.52 54.3 60.32 53.25Q60.67 53.03 61.01 52.8Q62.64 51.65 63.8 49.85Q64.61 50.24 65.46 50.43Q66.31 50.62 67.19 50.62Q68.15 50.62 69.05 50.38Q71.66 49.7 73.75 47.03Q73.99 47.67 74.29 48.27Q74.76 49.21 75.39 50.07Q76.88 52.11 78.86 52.93Q80.22 53.5 81.81 53.5Q83.23 53.5 84.45 53.02Q86.65 52.17 88.25 49.79Q89.75 52.82 92.15 53.94Q93.54 54.59 95.24 54.59Q98.24 54.59 101.47 52.31Q104.7 50.04 107.52 45.64L107.51 45.63Q108.89 43.55 109.57 41.85Q109.69 41.57 109.9 41.43Q110.13 41.28 110.46 41.28ZM54.06 48.14Q53.05 46.41 53.05 44.09Q53.05 41.24 54.3 39.15Q55.24 37.57 56.89 36.42Q56.77 37.06 56.77 37.43Q56.77 39.89 57.49 42.11Q57.84 43.2 58.36 44.23Q59.97 47.35 62.46 49.09Q61.82 49.8 61.03 50.22Q59.91 50.81 58.49 50.81Q57.33 50.81 56.37 50.36Q55.34 49.88 54.55 48.87Q54.28 48.52 54.06 48.14ZM151.53 48.14Q150.52 46.41 150.52 44.09Q150.52 41.24 151.78 39.15Q152.72 37.57 154.37 36.42Q154.24 37.06 154.24 37.43Q154.24 39.89 154.96 42.11Q155.31 43.2 155.84 44.23Q157.44 47.35 159.93 49.09Q159.29 49.8 158.5 50.22Q157.39 50.81 155.96 50.81Q154.8 50.81 153.85 50.36Q152.81 49.88 152.02 48.87Q151.75 48.52 151.53 48.14ZM64.44 42.68Q64.44 45.5 63.61 47.35Q63.58 47.32 63.55 47.3Q62.06 45.84 61.18 43.78Q60.28 41.67 60.28 40.04Q60.28 38.4 60.8 37.51Q61.24 36.74 61.81 36.63Q61.91 36.6 62.02 36.6Q62.09 36.6 62.16 36.61Q63.03 36.73 63.71 38.25Q64.44 39.87 64.44 42.68ZM161.91 42.68Q161.91 45.5 161.09 47.35Q161.05 47.32 161.02 47.3Q159.53 45.84 158.65 43.78Q157.76 41.67 157.76 40.04Q157.76 38.4 158.27 37.51Q158.71 36.74 159.28 36.63Q159.38 36.6 159.49 36.6Q159.56 36.6 159.64 36.61Q160.5 36.73 161.18 38.25Q161.91 39.87 161.91 42.68Z" fill="#000000" fill-opacity="1.000000" fill-rule="evenodd"/>
</svg>
